<svg width="165" height="32" viewBox="0 0 165 32" fill="none" xmlns="http://www.w3.org/2000/svg">
<path d="M43.48 23.24C42.16 23.24 41.0067 22.94 40.02 22.34C39.0333 21.74 38.2667 20.9067 37.72 19.84C37.1733 18.76 36.9 17.5067 36.9 16.08C36.9 14.64 37.18 13.3733 37.74 12.28C38.3133 11.1733 39.12 10.3133 40.16 9.7C41.2133 9.07333 42.46 8.76 43.9 8.76C45.54 8.76 46.9 9.15333 47.98 9.94C49.06 10.7267 49.76 11.8133 50.08 13.2H47.22C47.0067 12.5467 46.62 12.04 46.06 11.68C45.5 11.3067 44.78 11.12 43.9 11.12C42.5 11.12 41.42 11.5667 40.66 12.46C39.9 13.34 39.52 14.5533 39.52 16.1C39.52 17.6467 39.8933 18.8467 40.64 19.7C41.4 20.54 42.4267 20.96 43.72 20.96C44.9867 20.96 45.94 20.62 46.58 19.94C47.2333 19.2467 47.6267 18.34 47.76 17.22H44.22V15.3H50.34V23H47.98L47.78 21.16C47.3267 21.8267 46.76 22.34 46.08 22.7C45.4 23.06 44.5333 23.24 43.48 23.24ZM57.5888 23.24C56.5888 23.24 55.7021 23.0267 54.9288 22.6C54.1554 22.1733 53.5488 21.5733 53.1088 20.8C52.6688 20.0267 52.4488 19.1333 52.4488 18.12C52.4488 17.0933 52.6621 16.18 53.0888 15.38C53.5288 14.58 54.1288 13.96 54.8888 13.52C55.6621 13.0667 56.5688 12.84 57.6088 12.84C58.5821 12.84 59.4421 13.0533 60.1888 13.48C60.9354 13.9067 61.5154 14.4933 61.9288 15.24C62.3554 15.9733 62.5688 16.7933 62.5688 17.7C62.5688 17.8467 62.5621 18 62.5488 18.16C62.5488 18.32 62.5421 18.4867 62.5288 18.66H54.9888C55.0421 19.4333 55.3088 20.04 55.7888 20.48C56.2821 20.92 56.8754 21.14 57.5688 21.14C58.0888 21.14 58.5221 21.0267 58.8688 20.8C59.2288 20.56 59.4954 20.2533 59.6688 19.88H62.2688C62.0821 20.5067 61.7688 21.08 61.3288 21.6C60.9021 22.1067 60.3688 22.5067 59.7288 22.8C59.1021 23.0933 58.3888 23.24 57.5888 23.24ZM57.6088 14.92C56.9821 14.92 56.4288 15.1 55.9488 15.46C55.4688 15.8067 55.1621 16.34 55.0288 17.06H59.9688C59.9288 16.4067 59.6888 15.8867 59.2488 15.5C58.8088 15.1133 58.2621 14.92 57.6088 14.92ZM64.7219 23V13.08H66.9819L67.1819 14.76C67.4885 14.1733 67.9285 13.7067 68.5019 13.36C69.0885 13.0133 69.7752 12.84 70.5619 12.84C71.7885 12.84 72.7419 13.2267 73.4219 14C74.1019 14.7733 74.4419 15.9067 74.4419 17.4V23H71.8819V17.64C71.8819 16.7867 71.7085 16.1333 71.3619 15.68C71.0152 15.2267 70.4752 15 69.7419 15C69.0219 15 68.4285 15.2533 67.9619 15.76C67.5085 16.2667 67.2819 16.9733 67.2819 17.88V23H64.7219ZM81.7098 23.24C80.7098 23.24 79.8232 23.0267 79.0498 22.6C78.2765 22.1733 77.6698 21.5733 77.2298 20.8C76.7898 20.0267 76.5698 19.1333 76.5698 18.12C76.5698 17.0933 76.7832 16.18 77.2098 15.38C77.6498 14.58 78.2498 13.96 79.0098 13.52C79.7832 13.0667 80.6898 12.84 81.7298 12.84C82.7032 12.84 83.5632 13.0533 84.3098 13.48C85.0565 13.9067 85.6365 14.4933 86.0498 15.24C86.4765 15.9733 86.6898 16.7933 86.6898 17.7C86.6898 17.8467 86.6832 18 86.6698 18.16C86.6698 18.32 86.6632 18.4867 86.6498 18.66H79.1098C79.1632 19.4333 79.4298 20.04 79.9098 20.48C80.4032 20.92 80.9965 21.14 81.6898 21.14C82.2098 21.14 82.6432 21.0267 82.9898 20.8C83.3498 20.56 83.6165 20.2533 83.7898 19.88H86.3898C86.2032 20.5067 85.8898 21.08 85.4498 21.6C85.0232 22.1067 84.4898 22.5067 83.8498 22.8C83.2232 23.0933 82.5098 23.24 81.7098 23.24ZM81.7298 14.92C81.1032 14.92 80.5498 15.1 80.0698 15.46C79.5898 15.8067 79.2832 16.34 79.1498 17.06H84.0898C84.0498 16.4067 83.8098 15.8867 83.3698 15.5C82.9298 15.1133 82.3832 14.92 81.7298 14.92ZM88.843 23V13.08H91.123L91.363 14.94C91.723 14.3 92.2096 13.7933 92.823 13.42C93.4496 13.0333 94.183 12.84 95.023 12.84V15.54H94.303C93.743 15.54 93.243 15.6267 92.803 15.8C92.363 15.9733 92.0163 16.2733 91.763 16.7C91.523 17.1267 91.403 17.72 91.403 18.48V23H88.843ZM100.193 23.24C99.3393 23.24 98.6393 23.1067 98.0927 22.84C97.546 22.56 97.1393 22.1933 96.8727 21.74C96.606 21.2867 96.4727 20.7867 96.4727 20.24C96.4727 19.32 96.8327 18.5733 97.5527 18C98.2727 17.4267 99.3527 17.14 100.793 17.14H103.313V16.9C103.313 16.22 103.119 15.72 102.733 15.4C102.346 15.08 101.866 14.92 101.293 14.92C100.773 14.92 100.319 15.0467 99.9327 15.3C99.546 15.54 99.306 15.9 99.2127 16.38H96.7127C96.7793 15.66 97.0193 15.0333 97.4327 14.5C97.8593 13.9667 98.406 13.56 99.0727 13.28C99.7393 12.9867 100.486 12.84 101.313 12.84C102.726 12.84 103.839 13.1933 104.653 13.9C105.466 14.6067 105.873 15.6067 105.873 16.9V23H103.693L103.453 21.4C103.159 21.9333 102.746 22.3733 102.213 22.72C101.693 23.0667 101.019 23.24 100.193 23.24ZM100.773 21.24C101.506 21.24 102.073 21 102.473 20.52C102.886 20.04 103.146 19.4467 103.253 18.74H101.073C100.393 18.74 99.906 18.8667 99.6127 19.12C99.3193 19.36 99.1727 19.66 99.1727 20.02C99.1727 20.4067 99.3193 20.7067 99.6127 20.92C99.906 21.1333 100.293 21.24 100.773 21.24ZM108.316 23V8.6H110.876V23H108.316ZM118.317 23V9H127.357V11.06H120.877V14.98H126.117V17H120.877V23H118.317ZM126.909 23L132.029 9H134.909L140.029 23H137.309L136.189 19.76H130.729L129.589 23H126.909ZM131.429 17.76H135.489L133.449 11.94L131.429 17.76ZM147.592 23.24C146.192 23.24 144.965 22.9333 143.912 22.32C142.872 21.7067 142.052 20.86 141.452 19.78C140.865 18.6867 140.572 17.4267 140.572 16C140.572 14.5733 140.865 13.32 141.452 12.24C142.052 11.1467 142.872 10.2933 143.912 9.68C144.965 9.06667 146.192 8.76 147.592 8.76C148.979 8.76 150.199 9.06667 151.252 9.68C152.305 10.2933 153.125 11.1467 153.712 12.24C154.299 13.32 154.592 14.5733 154.592 16C154.592 17.3333 154.332 18.5267 153.812 19.58C153.292 20.62 152.572 21.4467 151.652 22.06L154.892 25.54H151.712L149.512 23.02C148.899 23.1667 148.259 23.24 147.592 23.24ZM147.592 20.94C148.925 20.94 149.985 20.5 150.772 19.62C151.572 18.74 151.972 17.5333 151.972 16C151.972 14.4667 151.572 13.26 150.772 12.38C149.985 11.5 148.925 11.06 147.592 11.06C146.259 11.06 145.192 11.5 144.392 12.38C143.592 13.26 143.192 14.4667 143.192 16C143.192 17.5333 143.592 18.74 144.392 19.62C145.192 20.5 146.259 20.94 147.592 20.94ZM160.834 23.24C159.954 23.24 159.18 23.1 158.514 22.82C157.847 22.5267 157.314 22.1267 156.914 21.62C156.514 21.1133 156.274 20.5267 156.194 19.86H158.774C158.854 20.2467 159.067 20.58 159.414 20.86C159.774 21.1267 160.234 21.26 160.794 21.26C161.354 21.26 161.76 21.1467 162.014 20.92C162.28 20.6933 162.414 20.4333 162.414 20.14C162.414 19.7133 162.227 19.4267 161.854 19.28C161.48 19.12 160.96 18.9667 160.294 18.82C159.867 18.7267 159.434 18.6133 158.994 18.48C158.554 18.3467 158.147 18.18 157.774 17.98C157.414 17.7667 157.12 17.5 156.894 17.18C156.667 16.8467 156.554 16.44 156.554 15.96C156.554 15.08 156.9 14.34 157.594 13.74C158.3 13.14 159.287 12.84 160.554 12.84C161.727 12.84 162.66 13.1133 163.354 13.66C164.06 14.2067 164.48 14.96 164.614 15.92H162.194C162.047 15.1867 161.494 14.82 160.534 14.82C160.054 14.82 159.68 14.9133 159.414 15.1C159.16 15.2867 159.034 15.52 159.034 15.8C159.034 16.0933 159.227 16.3267 159.614 16.5C160 16.6733 160.514 16.8333 161.154 16.98C161.847 17.14 162.48 17.32 163.054 17.52C163.64 17.7067 164.107 17.9933 164.454 18.38C164.8 18.7533 164.974 19.2933 164.974 20C164.987 20.6133 164.827 21.1667 164.494 21.66C164.16 22.1533 163.68 22.54 163.054 22.82C162.427 23.1 161.687 23.24 160.834 23.24Z" fill="white"/>
<path d="M12 26V22C13.2083 22 14.3281 21.724 15.3594 21.1719C16.3906 20.6198 17.2344 19.8958 17.8906 19C18.5469 18.1042 19.0625 17.1146 19.4375 16.0312C19.8125 14.9479 20 13.8646 20 12.7812C20 10.9062 19.2865 9.30729 17.8594 7.98438C16.4323 6.66146 14.6979 6 12.6562 6C11.1562 6 9.67708 6.375 8.21875 7.125C6.76042 7.875 5.64583 8.83333 4.875 10L2.21875 5.21875C3.48958 3.65625 5.10938 2.39583 7.07812 1.4375C9.04688 0.479167 11.0208 0 13 0C15 0 16.8438 0.489583 18.5312 1.46875C20.2188 2.44792 21.5521 3.78125 22.5312 5.46875C23.5104 7.15625 24 9 24 11C24 12.7083 23.6562 14.4688 22.9688 16.2812C22.2812 18.0938 21.3906 19.7083 20.2969 21.125C19.2031 22.5417 17.9167 23.7083 16.4375 24.625C14.9583 25.5417 13.4792 26 12 26ZM10 23.9062V25.875C8.1875 25.6667 6.625 25.1667 5.3125 24.375C4 23.5833 2.96354 22.526 2.20312 21.2031C1.44271 19.8802 0.885417 18.3854 0.53125 16.7188C0.177083 15.0521 0 13.1458 0 11C0 10.4583 0.0729167 9.86458 0.21875 9.21875L4 13C4.02083 14.9167 4.22917 16.6302 4.625 18.1406C5.02083 19.651 5.67708 20.9375 6.59375 22C7.51042 23.0625 8.64583 23.6979 10 23.9062ZM19.875 26C20.6667 26 21.2604 26.2917 21.6562 26.875C22.0521 27.4583 22.1302 28.1667 21.8906 29C21.651 29.8333 21.1615 30.5417 20.4219 31.125C19.6823 31.7083 18.9167 32 18.125 32C17.3333 32 16.7396 31.7083 16.3438 31.125C15.9479 30.5417 15.8698 29.8333 16.1094 29C16.349 28.1667 16.8385 27.4583 17.5781 26.875C18.3177 26.2917 19.0833 26 19.875 26Z" fill="white"/>
</svg>
