<svg xmlns="http://www.w3.org/2000/svg" width="52" height="52" viewBox="0 0 52 52">
  <g id="Group_165" data-name="Group 165" transform="translate(-1177 -855)">
    <rect id="Rectangle_262" data-name="Rectangle 262" width="52" height="52" rx="4" transform="translate(1177 855)" fill="none"/>
    <g id="google" transform="translate(1188.75 866.75)">
      <path id="Path_1075" data-name="Path 1075" d="M279.685,211.48H268.06a.929.929,0,0,0-.929.929v3.714a.929.929,0,0,0,.929.929h6.546a8.74,8.74,0,0,1-3.762,4.408l2.791,4.832a13.973,13.973,0,0,0,7.125-12.22,9.42,9.42,0,0,0-.16-1.825A.934.934,0,0,0,279.685,211.48Z" transform="translate(-252.261 -199.707)" fill="#167ee6"/>
      <path id="Path_1076" data-name="Path 1076" d="M46.746,338.188a8.672,8.672,0,0,1-7.5-4.341l-4.832,2.785a14.239,14.239,0,0,0,19.46,5.223v-.007l-2.791-4.832A8.609,8.609,0,0,1,46.746,338.188Z" transform="translate(-32.496 -315.264)" fill="#12b347"/>
      <path id="Path_1077" data-name="Path 1077" d="M263.125,395.618v-.007l-2.791-4.832A8.609,8.609,0,0,1,256,391.951v5.576A14.226,14.226,0,0,0,263.125,395.618Z" transform="translate(-241.75 -369.027)" fill="#0f993e"/>
      <path id="Path_1078" data-name="Path 1078" d="M5.576,135.237A8.609,8.609,0,0,1,6.747,130.9l-4.832-2.785a14.185,14.185,0,0,0,0,14.237l4.832-2.785A8.609,8.609,0,0,1,5.576,135.237Z" transform="translate(0 -120.987)" fill="#ffd500"/>
      <path id="Path_1079" data-name="Path 1079" d="M46.746,5.576a8.634,8.634,0,0,1,5.507,1.977A.926.926,0,0,0,53.5,7.5L56.13,4.866a.936.936,0,0,0-.054-1.37A14.219,14.219,0,0,0,34.411,7.132l4.832,2.785A8.672,8.672,0,0,1,46.746,5.576Z" transform="translate(-32.496)" fill="#ff4b26"/>
      <path id="Path_1080" data-name="Path 1080" d="M261.507,7.553a.926.926,0,0,0,1.246-.056l2.631-2.631a.936.936,0,0,0-.054-1.37A14.207,14.207,0,0,0,256,0V5.576A8.634,8.634,0,0,1,261.507,7.553Z" transform="translate(-241.75)" fill="#d93f21"/>
    </g>
  </g>
</svg>
