<svg width="20" height="20" viewBox="0 0 20 20" fill="none" xmlns="http://www.w3.org/2000/svg">
<path d="M1 11.0002H2V18.0002C2 19.1032 2.897 20.0002 4 20.0002H16C17.103 20.0002 18 19.1032 18 18.0002V11.0002H19C19.1978 11.0002 19.391 10.9415 19.5555 10.8316C19.7199 10.7217 19.848 10.5656 19.9237 10.3829C19.9993 10.2002 20.0192 9.99912 19.9806 9.80517C19.942 9.61122 19.8468 9.43305 19.707 9.2932L10.707 0.293201C10.6142 0.200255 10.504 0.126518 10.3827 0.0762068C10.2614 0.0258961 10.1313 0 10 0C9.86867 0 9.73862 0.0258961 9.61731 0.0762068C9.49599 0.126518 9.38579 0.200255 9.293 0.293201L0.293001 9.2932C0.153191 9.43305 0.0579847 9.61122 0.0194171 9.80517C-0.0191505 9.99912 0.000652574 10.2002 0.0763226 10.3829C0.151993 10.5656 0.280132 10.7217 0.444542 10.8316C0.608952 10.9415 0.80225 11.0002 1 11.0002ZM8 18.0002V13.0002H12V18.0002H8ZM10 2.4142L16 8.4142V13.0002L16.001 18.0002H14V13.0002C14 11.8972 13.103 11.0002 12 11.0002H8C6.897 11.0002 6 11.8972 6 13.0002V18.0002H4V8.4142L10 2.4142Z" fill="white"/>
</svg>
