<svg width="20" height="18" viewBox="0 0 20 18" fill="none" xmlns="http://www.w3.org/2000/svg">
<path d="M4.747 0.999979H8.211C8.40103 1.00004 8.58394 1.07222 8.72279 1.20195C8.86164 1.33168 8.94608 1.50928 8.95903 1.69886C8.97198 1.88844 8.91249 2.07587 8.79257 2.22328C8.67265 2.37068 8.50125 2.46708 8.313 2.49298L8.211 2.49998H4.747C4.17688 2.49991 3.62798 2.71627 3.21125 3.10535C2.79452 3.49442 2.54102 4.02719 2.502 4.59598L2.497 4.74998V14.25C2.49693 14.8201 2.7133 15.369 3.10237 15.7857C3.49144 16.2025 4.02421 16.456 4.593 16.495L4.747 16.5H14.247C14.8171 16.5 15.366 16.2837 15.7828 15.8946C16.1995 15.5055 16.453 14.9728 16.492 14.404L16.497 14.25V13.752C16.4953 13.5607 16.5668 13.376 16.6968 13.2357C16.8268 13.0954 17.0055 13.01 17.1964 12.9971C17.3872 12.9842 17.5758 13.0447 17.7235 13.1663C17.8712 13.2878 17.9669 13.4612 17.991 13.651L17.997 13.752V14.25C17.9971 15.21 17.629 16.1334 16.9686 16.8302C16.3081 17.5269 15.4056 17.9438 14.447 17.995L14.247 18H4.747C3.787 18.0001 2.86353 17.632 2.16682 16.9715C1.4701 16.3111 1.0532 15.4086 1.002 14.45L0.997002 14.25V4.74998C0.996915 3.78998 1.365 2.86651 2.02544 2.16979C2.68588 1.47308 3.58837 1.05618 4.547 1.00498L4.747 0.999979H8.211H4.747ZM12.5 3.51998V0.749979C12.4999 0.612024 12.5379 0.476719 12.6097 0.358946C12.6816 0.241174 12.7845 0.145497 12.9072 0.0824416C13.0299 0.0193858 13.1676 -0.00860595 13.3052 0.00154522C13.4428 0.0116964 13.5749 0.0595972 13.687 0.139979L13.769 0.208979L19.763 5.95898C20.043 6.22698 20.069 6.65898 19.84 6.95598L19.763 7.04098L13.769 12.793C13.6695 12.8886 13.5456 12.9549 13.4109 12.9846C13.2762 13.0143 13.1359 13.0063 13.0055 12.9614C12.875 12.9165 12.7595 12.8366 12.6715 12.7303C12.5836 12.624 12.5266 12.4955 12.507 12.359L12.5 12.252V9.52698L12.156 9.55698C9.756 9.80698 7.456 10.887 5.242 12.817C4.722 13.27 3.919 12.842 4.005 12.159C4.669 6.83898 7.451 3.90698 12.2 3.53898L12.5 3.51898V0.749979V3.51998ZM14 2.50898V4.24998C14 4.44889 13.921 4.63966 13.7803 4.78031C13.6397 4.92096 13.4489 4.99998 13.25 4.99998C9.376 4.99998 6.976 6.67598 5.938 10.157L5.859 10.436L6.211 10.199C8.45 8.73698 10.798 7.99998 13.251 7.99998C13.4322 7.99999 13.6073 8.06562 13.7439 8.18475C13.8805 8.30387 13.9694 8.46842 13.994 8.64798L14.001 8.74998V10.493L18.16 6.49998L14 2.50898Z" fill="white"/>
</svg>
