<svg width="108" height="42" viewBox="0 0 108 42" fill="none" xmlns="http://www.w3.org/2000/svg">
<path d="M36.08 11H53.32V15.96H41.2V21.92H50.56V26.88H41.2V39H36.08V11ZM61.2603 39.4C59.5536 39.4 58.2736 38.92 57.4203 37.96C56.567 36.9733 56.1403 35.7067 56.1403 34.16V9H61.1003V32.12C61.1003 33.1867 61.1536 33.9467 61.2603 34.4C61.3936 34.8267 61.607 35.0933 61.9003 35.2C62.2203 35.28 62.7536 35.32 63.5003 35.32L63.0603 39.4H61.2603ZM76.0928 39.4C73.7728 39.4 71.7861 38.9333 70.1328 38C68.5061 37.04 67.2795 35.7733 66.4528 34.2C65.6528 32.6 65.2528 30.8267 65.2528 28.88C65.2528 27.0133 65.6395 25.3067 66.4128 23.76C67.1861 22.2133 68.3061 20.9867 69.7728 20.08C71.2395 19.1467 72.9861 18.68 75.0128 18.68C76.8795 18.68 78.4528 19.0667 79.7328 19.84C81.0395 20.6133 82.0128 21.6533 82.6528 22.96C83.3195 24.2667 83.6528 25.7333 83.6528 27.36C83.6528 28.16 83.5461 29.0667 83.3328 30.08H70.4128C70.6795 31.84 71.3728 33.16 72.4928 34.04C73.6128 34.8933 74.9595 35.32 76.5328 35.32C78.6928 35.32 80.6928 34.7733 82.5328 33.68L82.7728 37.88C81.9195 38.3333 80.9195 38.7067 79.7728 39C78.6528 39.2667 77.4261 39.4 76.0928 39.4ZM78.6128 26.72C78.6128 25.68 78.3195 24.76 77.7328 23.96C77.1461 23.16 76.2395 22.76 75.0128 22.76C73.7861 22.76 72.7995 23.12 72.0528 23.84C71.3061 24.56 70.7995 25.52 70.5328 26.72H78.6128ZM91.6025 29L84.9625 19H90.8825L94.5225 24.8L97.8825 19H103.803L97.1625 29L103.803 39H97.8825L94.2425 33.2L90.8825 39H84.9625L91.6025 29Z" fill="url(#paint0_linear_217:428)"/>
<path d="M20.3229 19.1846V26.2882L20.0506 26.5681L18.8027 27.8512C18.7997 27.8547 18.7971 27.8586 18.7951 27.8629L9.26213 37.661C8.55946 38.3799 7.65971 38.8605 6.68364 39.0385C5.70762 39.2164 4.70198 39.0831 3.80177 38.6563C3.79349 38.6541 3.78574 38.6501 3.77906 38.6447C3.7771 38.6425 3.7744 38.6411 3.7715 38.6408C3.26754 38.3989 2.80921 38.0672 2.41775 37.661C2.26801 37.508 2.12901 37.3443 2.00179 37.1711C1.99873 37.1676 1.99618 37.1636 1.99423 37.1594C1.9846 37.1498 1.97574 37.1394 1.96776 37.1283C1.27005 36.1694 0.931537 34.9842 1.01417 33.7897C1.09681 32.5951 1.59507 31.4712 2.41775 30.6235L10.926 21.879C10.9279 21.8748 10.9305 21.8709 10.9336 21.8674L12.0982 20.6698L13.5428 19.1846H20.3229Z" fill="url(#paint1_linear_217:428)"/>
<path d="M30 14.2389V34.2551C30.0003 34.9291 29.8674 35.5962 29.6094 36.2158C29.3514 36.8354 28.9736 37.3947 28.4991 37.8597C28.0246 38.3247 27.4631 38.6858 26.8488 38.921C26.2345 39.1562 25.5801 39.2607 24.9253 39.228C23.7924 39.1512 22.7203 38.6736 21.8911 37.8762C21.0619 37.0788 20.5266 36.011 20.3762 34.8538C20.3767 34.8533 20.3771 34.8528 20.3774 34.8521C20.3777 34.8514 20.3778 34.8507 20.3778 34.85C20.3778 34.8492 20.3777 34.8485 20.3774 34.8479C20.3771 34.8472 20.3767 34.8466 20.3762 34.8461H20.3724V34.8383C20.3707 34.8226 20.3682 34.807 20.3649 34.7916C20.3377 34.5659 20.3238 34.3387 20.3233 34.1112V19.1846H4.97816C3.85246 19.1837 2.75898 18.798 1.86982 18.0882L1.86603 18.0843C1.86225 18.0843 1.85847 18.0804 1.85469 18.0765C1.85091 18.0726 1.84335 18.0648 1.83579 18.0571C1.82779 18.0484 1.81892 18.0405 1.80932 18.0337C1.27782 17.6035 0.841917 17.0614 0.530828 16.4438C0.219737 15.8262 0.0406509 15.1473 0.00556969 14.4528C-0.0258561 13.7796 0.0759462 13.1069 0.304815 12.4754C0.533683 11.8439 0.884855 11.2667 1.33705 10.7788C1.78924 10.291 2.33305 9.9026 2.93552 9.6372C3.538 9.37181 4.18659 9.23493 4.84203 9.23486H25.1333C25.7724 9.23471 26.4054 9.36404 26.9959 9.61547C27.5864 9.86689 28.123 10.2355 28.5749 10.7002C29.0269 11.1649 29.3854 11.7166 29.6299 12.3238C29.8744 12.931 30.0002 13.5817 30 14.2389Z" fill="url(#paint2_linear_217:428)"/>
<g style="mix-blend-mode:screen" opacity="0.3">
<g style="mix-blend-mode:screen" opacity="0.3">
<g style="mix-blend-mode:screen" opacity="0.3">
<path d="M28.8641 14.239V14.3984H1.13892V14.3478C1.13892 14.3237 1.13892 14.2883 1.13892 14.244C1.13326 13.7409 1.22485 13.2417 1.40838 12.7753C1.59191 12.3089 1.86373 11.8846 2.20804 11.5271C2.55235 11.1696 2.9623 10.886 3.41409 10.6928C3.86587 10.4995 4.3505 10.4005 4.83982 10.4014H25.1311C26.1208 10.402 27.0699 10.8065 27.7698 11.526C28.4698 12.2456 28.8633 13.2213 28.8641 14.239Z" fill="white"/>
</g>
</g>
</g>
<g style="mix-blend-mode:screen" opacity="0.2">
<g style="mix-blend-mode:screen" opacity="0.2">
<path d="M17.0067 22.5952L3.18929 36.8025C3.18929 36.8025 3.17795 36.7908 3.15527 36.7636C3.1383 36.7501 3.12306 36.7344 3.10989 36.7169C2.46657 35.9924 2.11911 35.041 2.13952 34.0602C2.15994 33.0793 2.54667 32.1441 3.21955 31.4485L11.7959 22.6341C11.8186 22.6069 11.8299 22.5952 11.8299 22.5952H17.0067Z" fill="white"/>
</g>
</g>
<g style="mix-blend-mode:multiply" opacity="0.2">
<g style="mix-blend-mode:multiply" opacity="0.2">
<path d="M20.3243 19.1846V26.2882L20.0521 26.5681L18.8042 27.8512V20.6698H12.0996L13.5441 19.1846H20.3243Z" fill="black"/>
</g>
</g>
<g style="mix-blend-mode:screen" opacity="0.6">
<g style="mix-blend-mode:screen" opacity="0.6">
<path d="M25.1349 10.4014C25.1349 10.4014 24.7227 10.4169 24.0042 10.4403C23.2858 10.4558 22.2572 10.4947 21.0245 10.5102C19.7917 10.5258 18.3548 10.5647 16.8157 10.5686C15.2767 10.5725 13.6318 10.588 11.9869 10.5958C10.3419 10.588 8.70077 10.5763 7.15794 10.5686C6.38653 10.5608 5.64159 10.553 4.93824 10.5413C4.29218 10.5134 3.65077 10.6652 3.08157 10.9807C2.60055 11.2536 2.18159 11.6287 1.85261 12.0811C1.59952 12.4356 1.40882 12.833 1.28917 13.2553C1.21421 13.5295 1.16732 13.8109 1.14925 14.0951C1.14585 14.1534 1.14396 14.2028 1.14283 14.244C1.13716 13.7409 1.22877 13.2417 1.4123 12.7753C1.59583 12.3089 1.86763 11.8846 2.21194 11.5271C2.55625 11.1696 2.9662 10.886 3.41799 10.6928C3.86976 10.4995 4.35439 10.4005 4.8437 10.4014H25.1349Z" fill="white"/>
</g>
</g>
<g style="mix-blend-mode:screen" opacity="0.6">
<g style="mix-blend-mode:screen" opacity="0.6">
<path d="M11.7958 22.6333C11.7278 22.7111 11.5576 22.9016 11.3118 23.1815C10.9752 23.5509 10.5063 24.0875 9.924 24.7096C9.34166 25.3317 8.66856 26.0743 7.93119 26.8403C7.19381 27.614 6.40727 28.4344 5.61696 29.2548C5.21991 29.6592 4.81908 30.0635 4.42581 30.464C4.03254 30.8645 3.63929 31.2533 3.27627 31.6343C2.94072 31.9933 2.67616 32.4158 2.4973 32.8785C2.33701 33.3 2.25245 33.7479 2.24772 34.2005C2.24479 34.5847 2.29704 34.9673 2.40276 35.3358C2.48634 35.6226 2.60047 35.8991 2.74309 36.1601C2.83917 36.3271 2.94658 36.4869 3.06451 36.6384C3.09693 36.6781 3.12722 36.7196 3.15526 36.7628C3.1383 36.7492 3.12306 36.7335 3.10989 36.7161C2.46657 35.9915 2.11911 35.0402 2.13952 34.0593C2.15994 33.0785 2.54667 32.1433 3.21955 31.4477L11.7958 22.6333Z" fill="white"/>
</g>
</g>
<g style="mix-blend-mode:screen" opacity="0.6">
<g style="mix-blend-mode:screen" opacity="0.6">
<path d="M10.9259 21.8799C10.8389 21.9888 10.1092 22.9102 8.98607 24.1855C8.39239 24.8699 7.68527 25.6553 6.91764 26.4834C6.52815 26.8956 6.13867 27.331 5.72649 27.7549C5.31432 28.1787 4.89833 28.618 4.47859 29.0535C4.05885 29.4812 3.63535 29.9089 3.21562 30.3327C3.01142 30.5426 2.80344 30.7487 2.60303 30.9509C2.41641 31.142 2.24565 31.3488 2.09253 31.5691C1.80156 31.9907 1.57933 32.4582 1.43457 32.9533C1.30596 33.4033 1.23477 33.8686 1.22281 34.3375C1.22123 34.7387 1.2618 35.1389 1.34382 35.5311C1.41568 35.8376 1.5105 36.1379 1.62743 36.4293C1.68037 36.5498 1.72952 36.6548 1.77111 36.7481C1.81271 36.8414 1.86187 36.9192 1.8959 36.9814C1.94506 37.0747 1.98288 37.1369 1.99423 37.1602C1.98459 37.1506 1.97574 37.1403 1.96775 37.1291C1.27005 36.1702 0.931538 34.9851 1.01417 33.7905C1.09681 32.596 1.59506 31.472 2.41774 30.6243L10.9259 21.8799Z" fill="white"/>
</g>
</g>
<g style="mix-blend-mode:multiply" opacity="0.3">
<g style="mix-blend-mode:multiply" opacity="0.3">
<path d="M18.8018 27.8521C18.7988 27.8556 18.7962 27.8595 18.7943 27.8637L9.26119 37.6618C8.55848 38.3807 7.65872 38.8614 6.68268 39.0393C5.70661 39.2172 4.70097 39.0839 3.80076 38.6572C3.79024 38.653 3.78009 38.6478 3.77051 38.6416C4.03074 38.74 4.29904 38.8141 4.57217 38.8633C5.27488 39.0003 5.99782 38.983 6.69357 38.8127C7.14565 38.6966 7.57968 38.516 7.98305 38.2761C8.20098 38.1476 8.40726 37.9993 8.59943 37.8329C8.70153 37.7474 8.78472 37.6618 8.88682 37.5685L9.0343 37.4169L9.17421 37.2652C9.57127 36.8453 9.9721 36.4021 10.3918 35.9666C10.8116 35.5311 11.2389 35.084 11.6662 34.6407C12.0935 34.1975 12.5322 33.762 12.9557 33.3304C13.3792 32.8989 13.8103 32.4867 14.2187 32.0785C15.043 31.2736 15.8258 30.5271 16.5027 29.9011C17.853 28.6413 18.8018 27.8521 18.8018 27.8521Z" fill="black"/>
</g>
</g>
<g style="mix-blend-mode:multiply" opacity="0.3">
<g style="mix-blend-mode:multiply" opacity="0.3">
<path d="M20.3843 34.845H20.374V34.8394C20.3796 34.8409 20.3832 34.8429 20.3843 34.845Z" fill="black"/>
</g>
</g>
<g style="mix-blend-mode:multiply" opacity="0.3">
<g style="mix-blend-mode:multiply" opacity="0.3">
<path d="M29.9998 14.8389V34.2562C30.0001 34.9303 29.8672 35.5973 29.6092 36.217C29.3512 36.8366 28.9734 37.3959 28.4989 37.8609C28.0244 38.3259 27.4629 38.687 26.8486 38.9222C26.2342 39.1574 25.5798 39.2618 24.9251 39.2292C23.7922 39.1524 22.7201 38.6747 21.8909 37.8774C21.0616 37.08 20.5263 36.0121 20.376 34.855C20.3911 34.9133 20.4176 35.0183 20.4516 35.17C20.5426 35.5186 20.6667 35.8572 20.8222 36.1809C21.0588 36.6816 21.3759 37.1377 21.76 37.5301C22.2456 38.0356 22.8328 38.4257 23.4806 38.6732C23.8429 38.8123 24.222 38.9 24.6074 38.9337L24.9251 38.957C25.0234 38.957 25.1217 38.9531 25.2238 38.9492C25.4331 38.9457 25.6417 38.9249 25.8478 38.887C26.7229 38.7259 27.5343 38.3088 28.1847 37.6856C28.5245 37.3608 28.814 36.9845 29.0431 36.5697C29.2692 36.1421 29.4359 35.684 29.5385 35.2088C29.5837 34.9663 29.6115 34.7207 29.6217 34.474L29.6292 34.2757C29.633 34.2485 29.6292 34.1513 29.6292 34.0929V33.6925C29.6254 33.1559 29.6255 32.6155 29.6217 32.0789C29.6292 30.998 29.633 29.921 29.6368 28.8634C29.6481 27.8019 29.6595 26.756 29.6708 25.749C29.6973 23.7272 29.7351 21.8414 29.7843 20.2239C29.8259 18.6104 29.8939 17.2612 29.928 16.3202C29.9696 15.3754 29.9998 14.8389 29.9998 14.8389Z" fill="black"/>
</g>
</g>
<g style="mix-blend-mode:screen" opacity="0.6">
<g style="mix-blend-mode:screen" opacity="0.6">
<path d="M20.864 9.23486C20.864 9.23486 20.4253 9.26986 19.6615 9.30874C18.8976 9.34762 17.801 9.41372 16.4888 9.45649C15.1805 9.50704 13.649 9.5498 12.0078 9.57702C11.1873 9.5848 10.3402 9.60813 9.48183 9.60813C8.61967 9.6159 7.74616 9.61979 6.87264 9.62368C6.434 9.61979 5.99535 9.61979 5.56049 9.61591L4.91008 9.61201C4.69832 9.61979 4.50547 9.62368 4.30505 9.64701C3.52562 9.73588 2.78179 10.0306 2.14586 10.5024C1.54431 10.9471 1.05539 11.5338 0.720254 12.2132C0.639168 12.3736 0.569658 12.54 0.512282 12.7109C0.451046 12.8731 0.400514 13.0393 0.361025 13.2085C0.342118 13.2941 0.319428 13.3757 0.300521 13.4574L0.266489 13.7023C0.255145 13.784 0.240021 13.8617 0.232458 13.9434C0.224895 14.0251 0.224888 14.1145 0.224888 14.2C0.176674 15.2615 0.476275 16.3089 1.07571 17.1744C1.24712 17.4199 1.43676 17.6512 1.64293 17.8665C1.71477 17.9404 1.7715 17.9948 1.80931 18.0337C1.27781 17.6035 0.841914 17.0614 0.530826 16.4438C0.219736 15.8262 0.0406508 15.1473 0.00556967 14.4527C-0.0258561 13.7796 0.0759459 13.1069 0.304814 12.4754C0.533681 11.8439 0.884852 11.2667 1.33705 10.7788C1.78924 10.291 2.33304 9.9026 2.93551 9.6372C3.53799 9.37181 4.18658 9.23493 4.84201 9.23486H20.864Z" fill="white"/>
</g>
</g>
<g style="mix-blend-mode:multiply" opacity="0.3">
<g style="mix-blend-mode:multiply" opacity="0.3">
<path d="M20.3237 19.1846V26.2882L20.0514 26.5681L20.0363 25.9849C20.006 24.8535 19.9909 23.7181 19.972 22.5867C19.9531 21.5797 19.9569 20.5765 19.9493 19.5695C18.8678 19.5734 17.7901 19.5617 16.7086 19.5578C15.5515 19.5423 14.3944 19.5267 13.2373 19.4995L13.5436 19.1846H20.3237Z" fill="black"/>
</g>
</g>
<g style="mix-blend-mode:screen" opacity="0.4">
<g style="mix-blend-mode:screen" opacity="0.4">
<path d="M20.7018 18.8044L20.698 19.1854C20.6904 20.3208 20.6942 21.4522 20.6715 22.5875C20.6564 23.719 20.6413 24.8543 20.611 25.9858L20.5619 27.6888L20.5014 29.3879C20.4409 30.5193 20.403 31.6547 20.3236 32.7861V19.1854H5.86328C7.06957 19.096 8.27208 19.0532 9.47837 18.991C10.6847 18.9405 11.8872 18.9016 13.0935 18.8744C14.2997 18.8471 15.5023 18.8316 16.7085 18.8122C17.9148 18.8083 19.1173 18.7927 20.3236 18.8005L20.7018 18.8044Z" fill="white"/>
</g>
</g>
<defs>
<linearGradient id="paint0_linear_217:428" x1="70.5" y1="0" x2="70.5" y2="42" gradientUnits="userSpaceOnUse">
<stop stop-color="#7729F5"/>
<stop offset="1" stop-color="#FF7600"/>
</linearGradient>
<linearGradient id="paint1_linear_217:428" x1="1.968" y1="37.9791" x2="20.4049" y2="20.4151" gradientUnits="userSpaceOnUse">
<stop stop-color="#F58033"/>
<stop offset="1" stop-color="#A53826"/>
</linearGradient>
<linearGradient id="paint2_linear_217:428" x1="15" y1="9.65485" x2="15" y2="38.3639" gradientUnits="userSpaceOnUse">
<stop stop-color="#FE7601"/>
<stop offset="1" stop-color="#A10BE8"/>
</linearGradient>
</defs>
</svg>
