<svg width="26" height="17" viewBox="0 0 26 17" fill="none" xmlns="http://www.w3.org/2000/svg">
<path d="M23.6484 15.4642H2.35106C2.23319 15.4642 2.12014 15.4174 2.03679 15.3341C1.95344 15.2507 1.90662 15.1377 1.90662 15.0198V1.8878C1.90662 1.76993 1.95344 1.65688 2.03679 1.57353C2.12014 1.49019 2.23319 1.44336 2.35106 1.44336H23.6488C23.7667 1.44336 23.8798 1.49019 23.9631 1.57353C24.0465 1.65688 24.0933 1.76993 24.0933 1.8878V15.0198C24.0933 15.1377 24.0465 15.2507 23.9631 15.3341C23.8798 15.4174 23.7663 15.4642 23.6484 15.4642Z" stroke="#781BFF" stroke-width="2" stroke-miterlimit="10"/>
<path d="M23.6666 5.77786H2.3333C2.21543 5.77786 2.10238 5.73104 2.01903 5.64769C1.93568 5.56434 1.88885 5.45129 1.88885 5.33342V4.08898C1.88885 3.9711 1.93568 3.85806 2.01903 3.77471C2.10238 3.69136 2.21543 3.64453 2.3333 3.64453H23.6666C23.7845 3.64453 23.8976 3.69136 23.9809 3.77471C24.0643 3.85806 24.1111 3.9711 24.1111 4.08898V5.33342C24.1111 5.45129 24.0643 5.56434 23.9809 5.64769C23.8976 5.73104 23.7845 5.77786 23.6666 5.77786Z" stroke="#781BFF" stroke-width="2" stroke-miterlimit="10"/>
<path d="M6.33248 13.245H5.46714C5.11078 13.244 4.76932 13.1019 4.51733 12.8499C4.26534 12.5979 4.12331 12.2565 4.12225 11.9001V11.0343C4.12331 10.6781 4.26528 10.3367 4.51717 10.0847C4.76906 9.83271 5.11041 9.69063 5.4667 9.68945H6.33203C6.68847 9.69039 7.03005 9.83237 7.28213 10.0844C7.53422 10.3364 7.67631 10.6779 7.67736 11.0343V11.9001C7.67631 12.2566 7.53422 12.5981 7.28213 12.8501C7.03005 13.1021 6.68847 13.2441 6.33203 13.245H6.33248Z" stroke="#781BFF" stroke-width="2" stroke-miterlimit="10" stroke-linecap="round" stroke-linejoin="round"/>
</svg>
