<svg width="19" height="18" viewBox="0 0 19 18" fill="none" xmlns="http://www.w3.org/2000/svg">
<path d="M13.25 10C13.0511 10 12.8603 10.079 12.7197 10.2197C12.579 10.3603 12.5 10.5511 12.5 10.75C12.5 10.9489 12.579 11.1397 12.7197 11.2803C12.8603 11.421 13.0511 11.5 13.25 11.5H15.25C15.4489 11.5 15.6397 11.421 15.7803 11.2803C15.921 11.1397 16 10.9489 16 10.75C16 10.5511 15.921 10.3603 15.7803 10.2197C15.6397 10.079 15.4489 10 15.25 10H13.25ZM16.25 2.75C16.25 2.02065 15.9603 1.32118 15.4445 0.805456C14.9288 0.289731 14.2293 0 13.5 0H2.25C1.94116 5.14684e-05 1.63564 0.0636826 1.35246 0.186932C1.06928 0.310181 0.814507 0.490408 0.604002 0.716392C0.393496 0.942375 0.231768 1.20928 0.128887 1.50047C0.026006 1.79167 -0.0158245 2.10093 0.00600004 2.409C0.00217303 2.43919 0.000169358 2.46957 0 2.5V14.75C0 15.612 0.34241 16.4386 0.951903 17.0481C1.5614 17.6576 2.38805 18 3.25 18H15.75C16.4793 18 17.1788 17.7103 17.6945 17.1945C18.2103 16.6788 18.5 15.9793 18.5 15.25V5.75C18.5002 5.10725 18.2752 4.48473 17.8642 3.99058C17.4532 3.49643 16.882 3.16186 16.25 3.045V2.75ZM1.5 2.25C1.5 2.05109 1.57902 1.86032 1.71967 1.71967C1.86032 1.57902 2.05109 1.5 2.25 1.5H13.5C14.19 1.5 14.75 2.06 14.75 2.75V3H2.25C2.05109 3 1.86032 2.92098 1.71967 2.78033C1.57902 2.63968 1.5 2.44891 1.5 2.25ZM2.25 4.5H15.75C16.44 4.5 17 5.06 17 5.75V15.25C17 15.94 16.44 16.5 15.75 16.5H3.25C2.78587 16.5 2.34075 16.3156 2.01256 15.9874C1.68437 15.6592 1.5 15.2141 1.5 14.75V4.372C1.735 4.455 1.987 4.5 2.25 4.5Z" fill="white"/>
</svg>
