<svg width="26" height="22" viewBox="0 0 26 22" fill="none" xmlns="http://www.w3.org/2000/svg">
<path d="M23.1755 5.14062H3.49127C2.85178 5.14062 2.33337 5.65903 2.33337 6.29852V19.0354C2.33337 19.6749 2.85178 20.1933 3.49127 20.1933H23.1755C23.815 20.1933 24.3334 19.6749 24.3334 19.0354V6.29852C24.3334 5.65903 23.815 5.14062 23.1755 5.14062Z" fill="#92D3F5" stroke="#781BFF" stroke-width="3" stroke-linecap="round" stroke-linejoin="round"/>
<path d="M13.9124 9.19336H24.3334V15.5618H13.9124V9.19336Z" stroke="#6200F0" stroke-width="3" stroke-linecap="round" stroke-linejoin="round"/>
<path d="M17.9649 5.14068C17.9649 2.24594 15.9386 1.66699 15.0702 1.66699H6.67545C4.59124 1.66699 4.07019 3.32626 4.07019 4.15589V5.14068M24.3333 8.03541V16.7196V8.03541Z" stroke="#781BFF" stroke-width="3" stroke-linecap="round" stroke-linejoin="round"/>
<path d="M18.8334 13.2456C19.313 13.2456 19.7018 12.8568 19.7018 12.3772C19.7018 11.8976 19.313 11.5088 18.8334 11.5088C18.3538 11.5088 17.965 11.8976 17.965 12.3772C17.965 12.8568 18.3538 13.2456 18.8334 13.2456Z" fill="#FFCE31"/>
</svg>
