<svg width="20" height="20" viewBox="0 0 20 20" fill="none" xmlns="http://www.w3.org/2000/svg">
<path d="M11.82 20H8.18C7.95193 20 7.7307 19.9221 7.553 19.7792C7.3753 19.6362 7.25181 19.4368 7.203 19.214L6.796 17.33C6.25306 17.0921 5.73823 16.7946 5.261 16.443L3.424 17.028C3.20656 17.0973 2.97195 17.0902 2.75912 17.0078C2.54629 16.9254 2.36805 16.7727 2.254 16.575L0.429999 13.424C0.317144 13.2261 0.274781 12.9958 0.309841 12.7708C0.344901 12.5457 0.455308 12.3392 0.622999 12.185L2.048 10.885C1.9832 10.2961 1.9832 9.70189 2.048 9.113L0.622999 7.816C0.45507 7.66177 0.344513 7.45507 0.309448 7.22978C0.274382 7.00449 0.316888 6.77397 0.429999 6.576L2.25 3.423C2.36405 3.22532 2.54229 3.07259 2.75512 2.99019C2.96795 2.90778 3.20256 2.90066 3.42 2.97L5.257 3.555C5.501 3.375 5.755 3.207 6.017 3.055C6.27 2.913 6.53 2.784 6.796 2.669L7.204 0.787C7.25257 0.564198 7.37583 0.364688 7.55335 0.221549C7.73086 0.0784098 7.95196 0.000239966 8.18 0H11.82C12.048 0.000239966 12.2691 0.0784098 12.4467 0.221549C12.6242 0.364688 12.7474 0.564198 12.796 0.787L13.208 2.67C13.7506 2.9079 14.2651 3.20539 14.742 3.557L16.58 2.972C16.7973 2.90292 17.0317 2.91017 17.2443 2.99256C17.4569 3.07495 17.635 3.22753 17.749 3.425L19.569 6.578C19.801 6.985 19.721 7.5 19.376 7.817L17.951 9.117C18.0158 9.70589 18.0158 10.3001 17.951 10.889L19.376 12.189C19.721 12.507 19.801 13.021 19.569 13.428L17.749 16.581C17.6349 16.7787 17.4567 16.9314 17.2439 17.0138C17.031 17.0962 16.7964 17.1033 16.579 17.034L14.742 16.449C14.2651 16.8003 13.7506 17.0975 13.208 17.335L12.796 19.214C12.7472 19.4366 12.6239 19.6359 12.4464 19.7788C12.2689 19.9218 12.0479 19.9998 11.82 20ZM5.62 14.229L6.44 14.829C6.625 14.965 6.817 15.09 7.017 15.204C7.205 15.313 7.397 15.411 7.596 15.5L8.529 15.909L8.986 18H11.016L11.473 15.908L12.406 15.499C12.813 15.319 13.2 15.096 13.559 14.833L14.379 14.233L16.421 14.883L17.436 13.125L15.853 11.682L15.965 10.67C16.015 10.227 16.015 9.78 15.965 9.338L15.853 8.326L17.437 6.88L16.421 5.121L14.38 5.771L13.559 5.171C13.1998 4.90669 12.8133 4.68173 12.406 4.5L11.473 4.091L11.016 2H8.986L8.526 4.092L7.596 4.5C7.18818 4.67861 6.80148 4.90198 6.443 5.166L5.622 5.766L3.582 5.116L2.565 6.88L4.148 8.321L4.036 9.334C3.986 9.777 3.986 10.224 4.036 10.666L4.148 11.678L2.565 13.121L3.58 14.879L5.62 14.229ZM9.996 14C8.93513 14 7.91772 13.5786 7.16757 12.8284C6.41743 12.0783 5.996 11.0609 5.996 10C5.996 8.93913 6.41743 7.92172 7.16757 7.17157C7.91772 6.42143 8.93513 6 9.996 6C11.0569 6 12.0743 6.42143 12.8244 7.17157C13.5746 7.92172 13.996 8.93913 13.996 10C13.996 11.0609 13.5746 12.0783 12.8244 12.8284C12.0743 13.5786 11.0569 14 9.996 14ZM9.996 8C9.60436 8.0004 9.22145 8.11577 8.89478 8.33181C8.56811 8.54785 8.31206 8.85505 8.1584 9.21528C8.00473 9.57552 7.96022 9.97295 8.03037 10.3583C8.10053 10.7436 8.28227 11.0998 8.55304 11.3828C8.82382 11.6657 9.17171 11.863 9.55356 11.95C9.93541 12.037 10.3344 12.01 10.7011 11.8724C11.0677 11.7347 11.3859 11.4924 11.6161 11.1756C11.8463 10.8587 11.9784 10.4812 11.996 10.09V10.49V10C11.996 9.46957 11.7853 8.96086 11.4102 8.58579C11.0351 8.21071 10.5264 8 9.996 8Z" fill="white"/>
</svg>
